PathFileType	4	(X/Y/Z)	/Users/niels/Desktop/University/Third Semester/Perception and Action/Exam/Gymnastics Motion Tracking/Code for Gym Tracking/Analyzed Data/Webcam_Backflip/id10_2_trajectory_Sports2D/id10_2_trajectory_Sports2D_px_person00.trc
DataRate	CameraRate	NumFrames	NumMarkers	Units	OrigDataRate	OrigDataStartFrame	OrigNumFrames
29.714285714285715	29.714285714285715	10	22	m	29.714285714285715	39	105
Frame#	Time	Hip			RHip			RKnee			RAnkle			RBigToe			RSmallToe			RHeel			LHip			LKnee			LAnkle			LBigToe			LSmallToe			LHeel			Neck			Head			Nose			RShoulder			RElbow			RWrist			LShoulder			LElbow			LWrist		
		X1	Y1	Z1	X2	Y2	Z2	X3	Y3	Z3	X4	Y4	Z4	X5	Y5	Z5	X6	Y6	Z6	X7	Y7	Z7	X8	Y8	Z8	X9	Y9	Z9	X10	Y10	Z10	X11	Y11	Z11	X12	Y12	Z12	X13	Y13	Z13	X14	Y14	Z14	X15	Y15	Z15	X16	Y16	Z16	X17	Y17	Z17	X18	Y18	Z18	X19	Y19	Z19	X20	Y20	Z20	X21	Y21	Z21	X22	Y22	Z22
39	1.3125	0.9079150443179471	-0.5919695752429373	0.0	0.9187447173452664	-0.5888948013551183	0.0	1.0298565310959218	-0.80696254570378	0.0	0.9221490691347219	-1.031591855381269	0.0	1.0234118511333716	-1.0625560836990586	0.0	1.0048971903935113	-1.0716691375815826	0.0	0.8881969905663362	-1.0570163754264088	0.0	0.895543074230143	-0.594076984458051	0.0	0.9676503296507348	-0.8064708250349913	0.0	0.9048482293219765	-1.0196866026156706	0.0	1.0187947272499958	-1.0455368839340973	0.0	1.0014031794806024	-1.0402859428768096	0.0	0.8786576934306021	-1.0460089061202607	0.0	0.8706041770887479	-0.30278894640896015	0.0	0.9040307209558703	-0.16881314342902892	0.0	0.935206388855304	-0.248577268086248	0.0	0.8689410365950315	-0.3258795346714944	0.0	0.9610343627015623	-0.4431019505110339	0.0	1.0726889433157678	-0.46214059087949705	0.0	0.8446272434861986	-0.33452252863005244	0.0	0.9597162495504672	-0.44820293795132027	0.0	1.0539350727869932	-0.4591538701480923	0.0
40	1.346153846153846	0.8990872003289058	-0.5857192589840469	0.0	0.9100143165619228	-0.5825261491018652	0.0	1.0121184290982908	-0.8030946977184651	0.0	0.9120821234125849	-1.0309016187599762	0.0	1.0142641325417852	-1.0602278670646292	0.0	0.9947668445524446	-1.0694338403411354	0.0	0.8795842032778806	-1.057357329548881	0.0	0.8867265663069568	-0.5870941055302895	0.0	0.9609944829369789	-0.801256345911134	0.0	0.9018233120372188	-1.017539334963446	0.0	1.0142894590587364	-1.0437507438585965	0.0	0.9966455815650676	-1.0382178207729174	0.0	0.8759573891195434	-1.0456405063290821	0.0	0.8723882504107756	-0.29262683739946355	0.0	0.901447732770701	-0.15766060781843283	0.0	0.9363806888679563	-0.23664541916915038	0.0	0.8722448628866516	-0.3175265364766839	0.0	0.9461486514944297	-0.4573470269283276	0.0	1.0609508105556102	-0.5161613842589445	0.0	0.8471588418639922	-0.3252570476853576	0.0	0.9492531360422268	-0.46156511369862435	0.0	1.0422205485672438	-0.5088406323567208	0.0
41	1.3798076923076923	0.8913204735695843	-0.5802004210582972	0.0	0.9012206079234899	-0.5767733165399475	0.0	0.9900292018528233	-0.8003913040620133	0.0	0.896513059641109	-1.0302541275218184	0.0	0.9996918832876264	-1.058873628421421	0.0	0.9787048734597283	-1.0676888385027477	0.0	0.8657089497662926	-1.0574268509227656	0.0	0.8794421276249682	-0.5802489196058046	0.0	0.9542992586665343	-0.796537201437053	0.0	0.8987759107674348	-1.0148738619684523	0.0	1.0085844980714052	-1.0419787735810495	0.0	0.9911509587717661	-1.0352920894149875	0.0	0.8729658763141107	-1.0445557473797604	0.0	0.8757874349110417	-0.28298778295939325	0.0	0.9000013199264545	-0.1474339898551648	0.0	0.9386715298468771	-0.22511811019597713	0.0	0.8763736585859433	-0.30932623482025984	0.0	0.9331699202787442	-0.46412517808959425	0.0	1.0402991088544598	-0.5581608000180723	0.0	0.850274565865466	-0.31594382268638677	0.0	0.9361728811456038	-0.4667323004579552	0.0	1.0218532729629548	-0.546101735419397	0.0
42	1.4134615384615383	0.8846699202606112	-0.5758745056228796	0.0	0.8928352115039024	-0.5721994403900269	0.0	0.965714859116759	-0.798559132058375	0.0	0.8770559102887043	-1.0301949102406578	0.0	0.980874156351431	-1.0590749326679976	0.0	0.9583115634466317	-1.0669000831150866	0.0	0.8478342117838356	-1.0576361950743502	0.0	0.8735716754764227	-0.574301147660388	0.0	0.9466956546592135	-0.792734265199609	0.0	0.8957999361751262	-1.0125580215166106	0.0	1.0020031401694651	-1.0404553443063145	0.0	0.9849876418453731	-1.031951408003977	0.0	0.870142063090016	-1.0431020682884073	0.0	0.8796704324545193	-0.27480893936125933	0.0	0.8996014717506142	-0.1387910006091976	0.0	0.9414602241239879	-0.21502267263589825	0.0	0.8802089973642532	-0.30229900204218385	0.0	0.9220630053654072	-0.4661550770221939	0.0	1.0140867884915248	-0.5879072355067811	0.0	0.8534465944219746	-0.3075747939195188	0.0	0.9208501793518851	-0.46643951793480604	0.0	0.9959339948451658	-0.570523636619647	0.0
43	1.4471153846153846	0.8789193563815496	-0.5727518356312162	0.0	0.885088366014554	-0.5690677208820556	0.0	0.940947120995004	-0.7972687300214008	0.0	0.8564549568508174	-1.0309960689362463	0.0	0.9600790260041336	-1.0608313903634088	0.0	0.9364928530807279	-1.0671925259097919	0.0	0.8286433354662284	-1.0583233092480728	0.0	0.8690044538046324	-0.5698024505500124	0.0	0.9378166022221903	-0.79002077109201	0.0	0.8935414955003264	-1.0111107035133182	0.0	0.9955661784082599	-1.0392259163856472	0.0	0.9787705631183762	-1.0287487244137332	0.0	0.8685162462422542	-1.0415679267096742	0.0	0.8831951999250551	-0.26860584914814833	0.0	0.9000354032882539	-0.1318857505197974	0.0	0.9442142143172501	-0.20681231228749705	0.0	0.8832891286732272	-0.2969756463779919	0.0	0.9121447937648895	-0.4655594965057729	0.0	0.9858613752713444	-0.6064814816347123	0.0	0.8563973061418216	-0.30089082592787086	0.0	0.9035761591298086	-0.46313139221583705	0.0	0.9677549937439646	-0.5833854932512507	0.0
44	1.4807692307692306	0.8738346158005752	-0.5706841044958665	0.0	0.8780705559830303	-0.5675486381166359	0.0	0.9168221700905816	-0.7965457542402062	0.0	0.8377630986442931	-1.032516106718266	0.0	0.9406632790532972	-1.0632573311086762	0.0	0.9170967101692861	-1.0680431557017072	0.0	0.811359970903921	-1.059491781858583	0.0	0.8657764045092821	-0.567219690294116	0.0	0.9282064775059864	-0.7885538646900931	0.0	0.8924847151222164	-1.0104856886471842	0.0	0.9903088459810573	-1.0381446892541706	0.0	0.9732470631288485	-1.026128960744931	0.0	0.8687053909655383	-1.040049234168945	0.0	0.8858931973334662	-0.26446552342586915	0.0	0.9010217806502439	-0.12655850023704504	0.0	0.9466383453397959	-0.2006043059772282	0.0	0.8855911194266943	-0.293522857506824	0.0	0.9027074472914104	-0.4638395012857027	0.0	0.9589487527393429	-0.6162468659966144	0.0	0.8589466768407679	-0.29625228717974333	0.0	0.8849956267428788	-0.4587123230563412	0.0	0.9405315247141295	-0.5875427778397693	0.0
45	1.5144230769230769	0.86919938405734	-0.5694921390638844	0.0	0.8718180734100349	-0.5676117594340473	0.0	0.8940830082784624	-0.796770725159873	0.0	0.8232343699279041	-1.0344007579409433	0.0	0.9259640583683354	-1.065082183891131	0.0	0.9035580212215436	-1.0686333538830808	0.0	0.7984176463525094	-1.0609021308322324	0.0	0.8635538733697287	-0.5666853441928595	0.0	0.9188420338546245	-0.7885268652789005	0.0	0.8924090006984485	-1.0103571021060684	0.0	0.9867376575741907	-1.0370390402033682	0.0	0.9688468917086178	-1.0243158103536465	0.0	0.8702685612445183	-1.038597889533107	0.0	0.8875471614643207	-0.2620802399843526	0.0	0.9023085589112957	-0.12249176546803008	0.0	0.9485973657361546	-0.19633039443309538	0.0	0.8872179876319473	-0.2917515897265404	0.0	0.8934690190390029	-0.46200482370020424	0.0	0.9358400623931549	-0.620266358500895	0.0	0.860752656689925	-0.29357078212513743	0.0	0.8661189310643772	-0.45450454863034245	0.0	0.9167670002155284	-0.5866061439369158	0.0
46	1.548076923076923	0.8648135941696301	-0.5689647597816049	0.0	0.8662501975724769	-0.568885129616083	0.0	0.873606287065881	-0.7982519923850802	0.0	0.8135457917029574	-1.0363335950639048	0.0	0.9173213501353319	-1.0656423808552191	0.0	0.8969507659083101	-1.0686233756066061	0.0	0.7905048863438907	-1.06233926634242	0.0	0.8616153972856458	-0.567773221802647	0.0	0.9104947612140122	-0.789981154287851	0.0	0.8926853133502284	-1.0105064070881349	0.0	0.9847711127559811	-1.035975712195351	0.0	0.9656247210166308	-1.0234106858901648	0.0	0.8722555851450107	-1.0374442496115444	0.0	0.8880926810340908	-0.2608805281547745	0.0	0.9036718224317299	-0.11936527691998555	0.0	0.9499472369448826	-0.1937028960257701	0.0	0.888186759598464	-0.29118881098651117	0.0	0.8846966986181722	-0.46067045974662346	0.0	0.9178739461336082	-0.6214183380639827	0.0	0.8613897387777958	-0.29238006093136576	0.0	0.848269221863922	-0.4512196885008238	0.0	0.8978568032536905	-0.5838236240468909	0.0
47	1.5817307692307692	0.860545694236946	-0.5688637433115137	0.0	0.8611665084938736	-0.570762064688914	0.0	0.8564372392175106	-0.8008495972359932	0.0	0.8079552167973971	-1.0381293604316775	0.0	0.9135423505770551	-1.0652271039305727	0.0	0.8955631544450097	-1.0683313810270023	0.0	0.7866770355107106	-1.063729022502363	0.0	0.8594737640348449	-0.5696895630471034	0.0	0.9035437272786389	-0.7926099111889843	0.0	0.8928253543591174	-1.01090243919242	0.0	0.9840126524549273	-1.035254257175816	0.0	0.9634489603796921	-1.0234059421314585	0.0	0.8739931591267492	-1.0369101135706387	0.0	0.887621805935132	-0.26023573122577753	0.0	0.904847899156213	-0.11697034657732952	0.0	0.9505397667669138	-0.19225575128960093	0.0	0.888402413634219	-0.29127235653493594	0.0	0.8769371631954075	-0.46013974737419805	0.0	0.9053062814268061	-0.6217351504596684	0.0	0.8607189897136541	-0.2920399305458364	0.0	0.8327252980945072	-0.4490488327177404	0.0	0.884127820820084	-0.5813655297525165	0.0
48	1.6153846153846154	0.856346015012503	-0.5689315307566951	0.0	0.8563762175318361	-0.5725971395907192	0.0	0.8433851939615646	-0.8040274703637572	0.0	0.8051456191173935	-1.0396859257860376	0.0	0.9121605218049958	-1.0645976840065599	0.0	0.89631557009852	-1.0682563643442633	0.0	0.7852893179607614	-1.0650556964071436	0.0	0.8571310922026286	-0.5716198985277222	0.0	0.8980604490216435	-0.7957796511476004	0.0	0.8926743272367758	-1.0115678190009518	0.0	0.9840671112948899	-1.0351063404017107	0.0	0.96217250719366	-1.0240876073986938	0.0	0.8752491025406561	-1.0371277532467054	0.0	0.8863552629719462	-0.2597062474484363	0.0	0.9055475607604334	-0.11518189715010002	0.0	0.9503266753810057	-0.19151474461943435	0.0	0.8876771470391946	-0.29159496770417154	0.0	0.870618717306692	-0.46051951231865185	0.0	0.8976097510513976	-0.6222563035802747	0.0	0.858997338088268	-0.2920222800302449	0.0	0.8203416171167269	-0.447922003501744	0.0	0.8752711151163999	-0.5803124187071284	0.0
